<svg width="16" height="16" viewBox="0 0 16 16" fill="none" xmlns="http://www.w3.org/2000/svg">
<path d="M8.00163 10.0498H7.99996C7.94606 10.0498 7.90064 10.0416 7.86128 10.0276C7.83709 10.0191 7.80636 10.0018 7.76978 9.96492L7.769 9.96414L5.369 7.56414C5.31539 7.51054 5.28329 7.44269 5.28329 7.33317C5.28329 7.22366 5.31539 7.15581 5.369 7.10221C5.42316 7.04805 5.49663 7.0117 5.61776 7.00838L5.60863 6.67517L5.61776 7.00838C5.73405 7.0052 5.79932 7.03727 5.84759 7.08554L7.09759 8.33554L7.66663 8.90458V8.09984V3.33317C7.66663 3.22841 7.69847 3.15606 7.761 3.09354L7.52624 2.85879L7.761 3.09354C7.82348 3.03106 7.89535 2.99959 7.99917 2.99984H7.99996C8.10473 2.99984 8.17707 3.03169 8.23959 3.09421L8.47435 2.85945L8.23959 3.09421C8.30207 3.15669 8.33354 3.22856 8.33329 3.33239V3.33317V8.09984V8.90458L8.90233 8.33554L10.1523 7.08554C10.2013 7.03658 10.2669 7.00454 10.3828 7.00771C10.5036 7.01102 10.5764 7.04733 10.6301 7.10135L10.6309 7.10221C10.6845 7.15581 10.7166 7.22366 10.7166 7.33317C10.7166 7.44269 10.6845 7.51053 10.6309 7.56414L8.23092 9.96414C8.19407 10.001 8.16258 10.019 8.13705 10.0282C8.0987 10.042 8.05442 10.0501 8.00163 10.0498V10.0498ZM7.74996 10.3418C7.67218 10.3143 7.59996 10.267 7.53329 10.1998L7.99996 10.3832C7.91107 10.3832 7.82774 10.3694 7.74996 10.3418ZM2.99996 12.0002V11.9998V10.6665C2.99996 10.5617 3.03181 10.4894 3.09433 10.4269C3.15681 10.3644 3.22868 10.3329 3.33251 10.3332H3.33329C3.43806 10.3332 3.5104 10.365 3.57292 10.4275C3.63541 10.49 3.66687 10.5619 3.66663 10.6657V10.6665V11.9998V12.3332H3.99996H12H12.3333V11.9998V10.6665C12.3333 10.5617 12.3651 10.4894 12.4277 10.4269C12.4901 10.3644 12.562 10.3329 12.6658 10.3332H12.6666C12.7714 10.3332 12.8437 10.365 12.9063 10.4275L13.142 10.1918L12.9063 10.4275C12.9687 10.49 13.0002 10.5619 13 10.6657V10.6665V11.9998C13 12.2773 12.905 12.5068 12.7056 12.7061C12.5062 12.9055 12.2771 13.0002 12.0004 12.9998H12H3.99996C3.72249 12.9998 3.49304 12.9049 3.29366 12.7055C3.09429 12.5061 2.99962 12.277 2.99996 12.0002Z" stroke="#3670F0" stroke-width="0.666667"/>
</svg>
