<svg width="67" height="20" viewBox="0 0 67 20" fill="none" xmlns="http://www.w3.org/2000/svg">
<g filter="url(#filter0_b_114_10745)">
<path d="M0 4C0 1.79086 1.79086 0 4 0H63C65.2091 0 67 1.79086 67 4V16C67 18.2091 65.2091 20 63 20H4C1.79086 20 0 18.2091 0 16V4Z" fill="#050A15" fill-opacity="0.6"/>
<g clip-path="url(#clip0_114_10745)">
<path d="M16.1975 9.061L13.6015 7.6395C13.265 7.45 12.865 7.4535 12.5325 7.648C12.199 7.843 12.0005 8.1895 12.0005 8.5755V11.425C12.0005 11.811 12.199 12.1575 12.5325 12.3525C12.7025 12.452 12.8895 12.501 13.076 12.501C13.255 12.501 13.434 12.4555 13.5965 12.364L16.2025 10.937C16.546 10.744 16.7505 10.394 16.7505 10.0005C16.7505 9.607 16.546 9.257 16.198 9.0615L16.1975 9.061ZM15.717 10.0625L13.111 11.49C13.1015 11.495 13.0725 11.511 13.0375 11.4895C13.0005 11.468 13.0005 11.436 13.0005 11.4255V8.576C13.0005 8.5655 13.0005 8.5335 13.0375 8.512C13.051 8.504 13.0635 8.5015 13.0745 8.5015C13.0925 8.5015 13.107 8.5095 13.116 8.5145L15.712 9.9365C15.7215 9.942 15.75 9.958 15.75 10.0015C15.75 10.045 15.721 10.061 15.717 10.064V10.0625ZM14 4C10.6915 4 8 6.6915 8 10C8 13.3085 10.6915 16 14 16C17.3085 16 20 13.3085 20 10C20 6.6915 17.3085 4 14 4ZM14 15C11.243 15 9 12.757 9 10C9 7.243 11.243 5 14 5C16.757 5 19 7.243 19 10C19 12.757 16.757 15 14 15Z" fill="#FBFBFB"/>
</g>
<path d="M35.1943 9.37C35.5209 9.51 35.7776 9.73333 35.9643 10.04C36.1509 10.3467 36.2443 10.69 36.2443 11.07C36.2443 11.6167 36.0409 12.0767 35.6343 12.45C35.2276 12.8167 34.7243 13 34.1243 13H31.3243V6H34.0843C34.6576 6 35.1276 6.17 35.4943 6.51C35.8676 6.85 36.0543 7.27667 36.0543 7.79C36.0543 8.10333 35.9743 8.40667 35.8143 8.7C35.6609 8.99333 35.4543 9.21667 35.1943 9.37ZM35.1643 7.91C35.1643 7.71 35.1143 7.53 35.0143 7.37C34.9209 7.21 34.7909 7.08667 34.6243 7C34.4576 6.90667 34.2709 6.86 34.0643 6.86H32.1843V8.96H34.0743C34.3809 8.96 34.6376 8.86 34.8443 8.66C35.0576 8.45333 35.1643 8.20333 35.1643 7.91ZM34.1143 12.13C34.4609 12.13 34.7509 12.02 34.9843 11.8C35.2176 11.58 35.3343 11.3033 35.3343 10.97C35.3343 10.6433 35.2176 10.37 34.9843 10.15C34.7509 9.93 34.4609 9.82 34.1143 9.82H32.1843V12.13H34.1143ZM37.5807 6.66V5.69H38.5007V6.66H37.5807ZM37.6207 13V7.6H38.4707V13H37.6207ZM44.6993 12.2H45.4293V14.43H44.6493V13H40.2993V14.43H39.5193V12.2H40.0993C40.2593 12.0533 40.3827 11.8467 40.4693 11.58C40.556 11.3067 40.6327 10.8933 40.6993 10.34C40.7727 9.78 40.8593 8.86667 40.9593 7.6H44.6993V12.2ZM41.7193 8.35C41.6593 9.24333 41.596 9.94 41.5293 10.44C41.4693 10.9333 41.3993 11.3133 41.3193 11.58C41.2393 11.84 41.136 12.0467 41.0093 12.2H43.8693V8.35H41.7193ZM51.6356 10.32C51.6356 10.3933 51.6289 10.4967 51.6156 10.63H47.0056C47.0723 11.13 47.2789 11.5333 47.6256 11.84C47.9723 12.14 48.3989 12.29 48.9056 12.29C49.2789 12.29 49.6089 12.21 49.8956 12.05C50.1889 11.8833 50.4223 11.65 50.5956 11.35H51.4856C51.2589 11.91 50.9189 12.3467 50.4656 12.66C50.0123 12.9667 49.4923 13.12 48.9056 13.12C48.1256 13.12 47.4723 12.85 46.9456 12.31C46.4189 11.77 46.1556 11.1 46.1556 10.3C46.1556 9.49333 46.4189 8.82333 46.9456 8.29C47.4723 7.75 48.1256 7.48 48.9056 7.48C49.7123 7.48 50.3689 7.75333 50.8756 8.3C51.3823 8.84667 51.6356 9.52 51.6356 10.32ZM48.9056 8.29C48.5856 8.29 48.2923 8.35333 48.0256 8.48C47.7656 8.60667 47.5489 8.79 47.3756 9.03C47.2023 9.26333 47.0856 9.53333 47.0256 9.84H50.7756C50.7156 9.52667 50.5989 9.25333 50.4256 9.02C50.2523 8.78 50.0356 8.6 49.7756 8.48C49.5156 8.35333 49.2256 8.29 48.9056 8.29ZM55.3339 13.12C54.8006 13.12 54.3139 13 53.8739 12.76C53.4339 12.5133 53.0906 12.1767 52.8439 11.75C52.5973 11.3167 52.4739 10.8333 52.4739 10.3C52.4739 9.48667 52.7439 8.81333 53.2839 8.28C53.8306 7.74667 54.5139 7.48 55.3339 7.48C55.8739 7.48 56.3606 7.60333 56.7939 7.85C57.2339 8.09 57.5773 8.42667 57.8239 8.86C58.0773 9.28667 58.2039 9.76667 58.2039 10.3C58.2039 11.1067 57.9306 11.78 57.3839 12.32C56.8373 12.8533 56.1539 13.12 55.3339 13.12ZM53.9039 11.74C54.2839 12.1133 54.7606 12.3 55.3339 12.3C55.9139 12.3 56.3906 12.1133 56.7639 11.74C57.1439 11.36 57.3339 10.88 57.3339 10.3C57.3339 9.72 57.1439 9.24333 56.7639 8.87C56.3906 8.49 55.9139 8.3 55.3339 8.3C54.7606 8.3 54.2839 8.49 53.9039 8.87C53.5306 9.24333 53.3439 9.72 53.3439 10.3C53.3439 10.88 53.5306 11.36 53.9039 11.74Z" fill="#FBFBFB"/>
</g>
<defs>
<filter id="filter0_b_114_10745" x="-7" y="-7" width="81" height="34" filterUnits="userSpaceOnUse" color-interpolation-filters="sRGB">
<feFlood flood-opacity="0" result="BackgroundImageFix"/>
<feGaussianBlur in="BackgroundImageFix" stdDeviation="3.5"/>
<feComposite in2="SourceAlpha" operator="in" result="effect1_backgroundBlur_114_10745"/>
<feBlend mode="normal" in="SourceGraphic" in2="effect1_backgroundBlur_114_10745" result="shape"/>
</filter>
<clipPath id="clip0_114_10745">
<rect width="12" height="12" fill="white" transform="translate(8 4)"/>
</clipPath>
</defs>
</svg>
